<?xml version="1.0" encoding="UTF-8"?>
<svg id="Layer_1" data-name="Layer 1" xmlns="http://www.w3.org/2000/svg" xmlns:xlink="http://www.w3.org/1999/xlink" viewBox="0 0 288 288">
  <defs>
    <style>
      .cls-1 {
        clip-path: url(#clippath);
      }

      .cls-2 {
        fill: none;
      }

      .cls-2, .cls-3, .cls-4 {
        stroke-width: 0px;
      }

      .cls-3 {
        fill: #333132;
      }

      .cls-4 {
        fill: #fffef2;
      }
    </style>
    <clipPath id="clippath">
      <rect class="cls-2" x="75.05" y="75.05" width="137.89" height="137.89"/>
    </clipPath>
  </defs>
  <g class="cls-1">
    <rect class="cls-3" x="75.05" y="75.05" width="137.89" height="137.89" rx="30.47" ry="30.47"/>
  </g>
  <g>
    <path class="cls-4" d="m120.14,159.98c-2.8,2.56-6.38,3.84-10.74,3.84-5.39,0-9.63-1.73-12.72-5.19-3.09-3.48-4.63-8.24-4.63-14.3,0-6.55,1.76-11.59,5.27-15.14,3.05-3.09,6.94-4.63,11.65-4.63,6.31,0,10.92,2.07,13.84,6.21,1.61,2.32,2.48,4.66,2.6,7h-7.84c-.51-1.8-1.16-3.15-1.96-4.07-1.42-1.63-3.54-2.44-6.33-2.44s-5.1,1.15-6.74,3.45-2.47,5.55-2.47,9.76.87,7.36,2.61,9.45,3.95,3.14,6.63,3.14,4.84-.9,6.28-2.7c.8-.97,1.46-2.42,1.98-4.35h7.76c-.68,4.09-2.41,7.41-5.19,9.97Z"/>
    <path class="cls-4" d="m145.39,157.36c1.85,0,3.35-.2,4.5-.61,2.19-.78,3.28-2.23,3.28-4.35,0-1.24-.54-2.2-1.63-2.87-1.09-.66-2.79-1.25-5.11-1.76l-3.97-.89c-3.9-.88-6.6-1.84-8.09-2.87-2.53-1.73-3.79-4.44-3.79-8.12,0-3.36,1.22-6.15,3.66-8.37s6.03-3.33,10.76-3.33c3.95,0,7.32,1.05,10.11,3.14,2.79,2.09,4.25,5.13,4.39,9.12h-7.53c-.14-2.26-1.12-3.86-2.95-4.81-1.22-.63-2.74-.94-4.55-.94-2.02,0-3.63.41-4.83,1.22s-1.81,1.95-1.81,3.41c0,1.34.59,2.34,1.78,3,.76.44,2.39.96,4.88,1.55l6.46,1.55c2.83.68,4.97,1.59,6.41,2.72,2.24,1.76,3.36,4.32,3.36,7.66s-1.31,6.27-3.93,8.54-6.32,3.4-11.11,3.4-8.73-1.12-11.53-3.35-4.2-5.3-4.2-9.2h7.48c.24,1.71.7,2.99,1.4,3.84,1.27,1.54,3.45,2.32,6.54,2.32Z"/>
    <path class="cls-4" d="m180.61,157.36c1.85,0,3.35-.2,4.5-.61,2.19-.78,3.28-2.23,3.28-4.35,0-1.24-.54-2.2-1.63-2.87-1.09-.66-2.79-1.25-5.11-1.76l-3.97-.89c-3.9-.88-6.6-1.84-8.09-2.87-2.53-1.73-3.79-4.44-3.79-8.12,0-3.36,1.22-6.15,3.66-8.37s6.03-3.33,10.76-3.33c3.95,0,7.32,1.05,10.11,3.14,2.79,2.09,4.25,5.13,4.39,9.12h-7.53c-.14-2.26-1.12-3.86-2.95-4.81-1.22-.63-2.74-.94-4.55-.94-2.02,0-3.63.41-4.83,1.22s-1.81,1.95-1.81,3.41c0,1.34.59,2.34,1.78,3,.76.44,2.39.96,4.88,1.55l6.46,1.55c2.83.68,4.97,1.59,6.41,2.72,2.24,1.76,3.36,4.32,3.36,7.66s-1.31,6.27-3.93,8.54-6.32,3.4-11.11,3.4-8.73-1.12-11.53-3.35-4.2-5.3-4.2-9.2h7.48c.24,1.71.7,2.99,1.4,3.84,1.27,1.54,3.45,2.32,6.54,2.32Z"/>
  </g>
</svg>