<?xml version="1.0" encoding="UTF-8"?>
<svg id="Layer_1" data-name="Layer 1" xmlns="http://www.w3.org/2000/svg" viewBox="0 0 288 288">
  <defs>
    <style>
      .cls-1 {
        fill: #ef4341;
        stroke-width: 0px;
      }
    </style>
  </defs>
  <path class="cls-1" d="M226.81,143.96c14.79-13.02,18.87-35.07,8.63-52.8-10.23-17.72-31.37-25.22-50.04-18.92-3.88-19.32-20.94-33.88-41.41-33.88s-37.53,14.55-41.41,33.88c-18.67-6.3-39.81,1.2-50.04,18.92-10.23,17.72-6.16,39.78,8.64,52.8-14.79,13.02-18.87,35.07-8.64,52.8,10.23,17.72,31.37,25.22,50.04,18.92,3.88,19.32,20.94,33.88,41.41,33.88s37.53-14.55,41.41-33.88c18.67,6.3,39.81-1.2,50.04-18.92s6.16-39.77-8.63-52.8Z"/>
</svg>