<?xml version="1.0" encoding="UTF-8"?> <svg xmlns="http://www.w3.org/2000/svg" xmlns:xlink="http://www.w3.org/1999/xlink" width="690px" height="172px" viewBox="0 0 690 172" version="1.1"><g id="Symbols" stroke="none" stroke-width="1" fill="none" fill-rule="evenodd"><g id="Logos-/-Metro" fill="#06443E" fill-rule="nonzero"><g id="Metro_Logo_RGB" transform="translate(0.960000, 0.000000)"><path d="M424.52,128.7 L420.4,128.01 C417.19,141.29 412.16,147.7 403.91,147.7 C396.12,147.7 391.09,141.29 391.09,131.67 L391.09,56.33 L423.15,56.33 L423.15,48.75 L391.09,48.75 L391.09,14.43 L382.95,14.43 L344.6,48.75 L332.24,48.75 L332.24,56.33 L344.6,56.33 L344.6,129.38 C344.6,157.32 362.69,171.29 383.99,171.29 C408.72,171.29 421.32,151.83 424.52,128.7 Z" id="Path"></path><path d="M492.94,148.16 L492.94,108.54 C492.94,91.14 498.89,75.33 505.99,71.44 L540.8,101.9 L545.84,101.9 L545.84,51.53 C542.4,50.39 536.68,49.7 530.95,49.7 C508.97,49.7 498.2,62.13 493.85,79.99 L492.93,79.99 L492.93,48.75 L430.87,48.75 L430.87,56.33 L446.44,71.44 L446.44,148.15 L430.87,163.26 L430.87,167.84 L492.93,167.84 L516.75,167.84 L516.75,163.26 L492.94,148.16 Z" id="Path"></path><path d="M689.01,109.92 C689.01,73.28 658.09,48.55 621,48.55 C584.13,48.55 553.22,73.28 553.22,109.92 C553.22,146.56 584.14,171.29 621,171.29 C658.09,171.29 689.01,146.56 689.01,109.92 Z M620.99,54.13 C634.04,54.13 639.08,64.58 639.08,109.92 C639.08,154.57 634.04,165.71 620.99,165.71 C608.17,165.71 603.13,154.57 603.13,109.92 C603.13,64.58 608.17,54.13 620.99,54.13 Z" id="Shape"></path><polygon id="Path" points="247.6 36.18 251.49 38.24 315.15 4.12 315.15 0 258.82 0"></polygon><path d="M325,130.07 L321.33,128.47 C311.26,142.9 300.49,146.79 287.9,146.79 C265.23,146.79 251.72,128.24 249.89,109.92 L326.38,109.92 C326.38,70.99 302.56,48.55 266.38,48.55 C229.74,48.55 199.97,73.28 199.97,109.92 C199.97,146.56 230.2,171.29 267.07,171.29 C295,171.29 314.69,157.1 325,130.07 Z M266.38,52.98 C277.55,52.98 281.75,62.25 282.16,102.32 L249.91,102.32 C250.12,66.94 254.35,52.98 266.38,52.98 Z" id="Shape"></path><polygon id="Path" points="196.49 163.29 180.92 148.17 180.92 34.13 196.49 19.02 196.49 14.44 180.92 14.44 140.65 14.44 103.33 86.13 62.76 14.44 15.8 14.44 15.8 14.43 0 14.43 0 19.01 14.27 32.66 15.79 34.01 15.79 148.17 0 163.28 0 167.86 39.17 167.86 39.17 163.28 23.37 148.17 23.37 45.02 76.04 139.24 84.18 139.24 133.29 45.02 133.29 148.17 117.49 163.29 117.49 167.87 133.29 167.87 180.92 167.87 196.49 167.87"></polygon></g></g></g></svg> 