<?xml version="1.0" encoding="UTF-8"?>
<svg id="Layer_1" data-name="Layer 1" xmlns="http://www.w3.org/2000/svg" xmlns:xlink="http://www.w3.org/1999/xlink" viewBox="0 0 288 288">
  <defs>
    <style>
      .cls-1 {
        clip-path: url(#clippath);
      }

      .cls-2 {
        fill: none;
      }

      .cls-2, .cls-3, .cls-4 {
        stroke-width: 0px;
      }

      .cls-3 {
        fill: #2460ad;
      }

      .cls-4 {
        fill: #fffef2;
      }
    </style>
    <clipPath id="clippath">
      <rect class="cls-2" x="75.05" y="75.05" width="137.89" height="137.89"/>
    </clipPath>
  </defs>
  <g class="cls-1">
    <rect class="cls-3" x="75.05" y="75.05" width="137.89" height="137.89" rx="30.47" ry="30.47"/>
  </g>
  <path class="cls-4" d="m169.83,126.89c-6.09,0-10.82,1.54-14.18,4.61-3.36,3.07-5.04,6.75-5.04,11.03,0,3.63,1.08,6.4,3.23,8.33,2.15,1.95,5.85,3.59,11.09,4.89,7.28,1.73,11.49,2.95,12.62,3.65,1.13.71,1.7,1.74,1.7,3.1s-.7,2.48-2.11,3.19c-1.4.71-3.29,1.06-5.67,1.06-4.05,0-6.83-.81-8.33-2.42-.85-.91-1.4-2.44-1.66-4.59h-12.28c0,4.76,1.74,8.68,5.21,11.75,3.47,3.07,8.85,4.61,16.13,4.61s12.42-1.45,15.83-4.36c3.42-2.91,5.12-6.65,5.12-11.25,0-3.48-1.19-6.39-3.57-8.71-2.41-2.29-6.02-4.01-10.84-5.14-7.22-1.59-11.43-2.71-12.62-3.36-1.19-.62-1.79-1.63-1.79-3.02,0-1.1.56-2.07,1.68-2.89,1.12-.82,3-1.23,5.63-1.23,3.2,0,5.47.82,6.8,2.47.71.91,1.15,2.14,1.32,3.7h12.12c-.54-5.67-2.62-9.66-6.25-11.99-3.65-2.3-8.37-3.44-14.16-3.44m-44.13,14.33h-12.2v-18.45h12.2c3.09,0,5.49.69,7.21,2.08,1.71,1.39,2.57,3.71,2.57,6.97s-.85,5.64-2.55,7.14c-1.73,1.5-4.14,2.25-7.23,2.25m17.13,6.21c3.74-3.06,5.61-8.29,5.61-15.69,0-6.77-1.87-11.78-5.61-15-3.74-3.23-8.76-4.85-15.05-4.85h-27.29v62.66h13.01v-22.53h13.3c6.94,0,12.29-1.53,16.03-4.59"/>
</svg>