<?xml version="1.0" encoding="UTF-8"?>
<svg id="Layer_1" data-name="Layer 1" xmlns="http://www.w3.org/2000/svg" xmlns:xlink="http://www.w3.org/1999/xlink" viewBox="0 0 288 288">
  <defs>
    <style>
      .cls-1 {
        clip-path: url(#clippath);
      }

      .cls-2 {
        fill: none;
      }

      .cls-2, .cls-3, .cls-4 {
        stroke-width: 0px;
      }

      .cls-3 {
        fill: #fffef2;
      }

      .cls-4 {
        fill: #ef4341;
      }
    </style>
    <clipPath id="clippath">
      <rect class="cls-2" x="75.05" y="75.05" width="137.89" height="137.89"/>
    </clipPath>
  </defs>
  <g class="cls-1">
    <rect class="cls-4" x="75.05" y="75.05" width="137.89" height="137.89" rx="30.47" ry="30.47"/>
  </g>
  <path class="cls-3" d="m143.99,141.42c1.92-3.09,4.92-4.64,9.01-4.64,2.68,0,5.04.85,7.07,2.55,3.3,2.82,4.96,7.5,4.96,14.04,0,4.68-1.03,8.49-3.09,11.44s-5.07,4.42-9.03,4.42-6.91-1.49-8.84-4.47c-1.96-2.95-2.95-6.89-2.95-11.83,0-4.58.96-8.42,2.87-11.52m21.65-34.34v25.53c-1.57-2.52-3.62-4.49-6.14-5.91-2.52-1.42-5.4-2.14-8.64-2.14-7.04,0-12.66,2.62-16.86,7.86-4.21,5.24-6.31,12.42-6.31,21.55,0,7.92,2.14,14.41,6.41,19.46,4.27,5.06,9.53,7.59,15.78,7.59,3.8,0,6.97-.72,9.52-2.16s4.83-3.75,6.83-6.92v7.41h13.6v-72.27h-14.19Zm-57.47,72.27h15.02v-72.37h-15.02v72.37Z"/>
</svg>