<?xml version="1.0" encoding="UTF-8"?>
<svg id="Layer_1" data-name="Layer 1" xmlns="http://www.w3.org/2000/svg" xmlns:xlink="http://www.w3.org/1999/xlink" viewBox="0 0 144 144">
  <defs>
    <style>
      .cls-1 {
        clip-path: url(#clippath);
      }

      .cls-2 {
        fill: none;
      }

      .cls-2, .cls-3, .cls-4 {
        stroke-width: 0px;
      }

      .cls-3 {
        fill: #2460ad;
      }

      .cls-4 {
        fill: #fffef2;
      }
    </style>
    <clipPath id="clippath">
      <rect class="cls-2" width="144" height="144"/>
    </clipPath>
  </defs>
  <g class="cls-1">
    <rect class="cls-3" y="0" width="144" height="144" rx="31.82" ry="31.82"/>
  </g>
  <path class="cls-4" d="m98.97,54.13c-6.36,0-11.3,1.61-14.81,4.82-3.51,3.21-5.26,7.05-5.26,11.52,0,3.79,1.12,6.69,3.38,8.7,2.25,2.04,6.11,3.74,11.59,5.11,7.61,1.81,12,3.08,13.18,3.82,1.18.74,1.78,1.82,1.78,3.24s-.73,2.59-2.2,3.33c-1.46.74-3.44,1.11-5.93,1.11-4.23,0-7.13-.84-8.7-2.53-.89-.95-1.47-2.54-1.73-4.79h-12.83c0,4.97,1.81,9.06,5.44,12.27,3.63,3.21,9.24,4.82,16.85,4.82s12.97-1.52,16.54-4.55c3.57-3.04,5.35-6.95,5.35-11.74,0-3.64-1.24-6.67-3.73-9.1-2.52-2.4-6.29-4.19-11.32-5.37-7.54-1.66-11.94-2.83-13.18-3.51-1.24-.65-1.87-1.7-1.87-3.15,0-1.15.59-2.16,1.75-3.02,1.17-.86,3.13-1.29,5.88-1.29,3.35,0,5.71.86,7.1,2.57.74.95,1.2,2.23,1.37,3.86h12.65c-.56-5.92-2.74-10.09-6.53-12.52-3.82-2.4-8.74-3.6-14.78-3.6m-46.08,14.96h-12.74v-19.27h12.74c3.23,0,5.74.73,7.52,2.18,1.79,1.45,2.69,3.88,2.69,7.28s-.89,5.89-2.66,7.46c-1.81,1.57-4.32,2.35-7.55,2.35m17.89,6.48c3.91-3.2,5.86-8.66,5.86-16.38,0-7.07-1.95-12.3-5.86-15.67-3.91-3.38-9.15-5.06-15.72-5.06h-28.5v65.44h13.59v-23.53h13.89c7.25,0,12.83-1.6,16.74-4.8"/>
</svg>