<?xml version="1.0" encoding="UTF-8"?>
<svg id="Layer_1" data-name="Layer 1" xmlns="http://www.w3.org/2000/svg" xmlns:xlink="http://www.w3.org/1999/xlink" viewBox="0 0 144 144">
  <defs>
    <style>
      .cls-1 {
        clip-path: url(#clippath);
      }

      .cls-2 {
        fill: none;
      }

      .cls-2, .cls-3, .cls-4 {
        stroke-width: 0px;
      }

      .cls-3 {
        fill: #fffef2;
      }

      .cls-4 {
        fill: #ef4341;
      }
    </style>
    <clipPath id="clippath">
      <rect class="cls-2" width="144" height="144"/>
    </clipPath>
  </defs>
  <g class="cls-1">
    <rect class="cls-4" y="0" width="144" height="144" rx="31.82" ry="31.82"/>
  </g>
  <path class="cls-3" d="m71.99,69.31c2-3.23,5.14-4.84,9.41-4.84,2.8,0,5.26.89,7.38,2.67,3.45,2.94,5.18,7.83,5.18,14.66,0,4.89-1.08,8.87-3.23,11.95-2.15,3.08-5.3,4.61-9.43,4.61s-7.21-1.56-9.23-4.67c-2.05-3.08-3.08-7.2-3.08-12.35,0-4.79,1-8.79,3-12.03m22.61-35.86v26.66c-1.64-2.63-3.78-4.69-6.41-6.18-2.63-1.49-5.64-2.23-9.02-2.23-7.35,0-13.22,2.74-17.61,8.2-4.39,5.47-6.59,12.97-6.59,22.51,0,8.27,2.23,15.05,6.69,20.33,4.46,5.28,9.96,7.92,16.48,7.92,3.96,0,7.28-.75,9.95-2.26s5.04-3.91,7.13-7.23v7.74h14.2V33.44h-14.81Zm-60.01,75.47h15.69V33.34h-15.69v75.57Z"/>
</svg>