<?xml version="1.0" encoding="UTF-8"?>
<svg id="Layer_1" data-name="Layer 1" xmlns="http://www.w3.org/2000/svg" xmlns:xlink="http://www.w3.org/1999/xlink" viewBox="0 0 144 144">
  <defs>
    <style>
      .cls-1 {
        clip-path: url(#clippath);
      }

      .cls-2 {
        fill: none;
      }

      .cls-2, .cls-3, .cls-4 {
        stroke-width: 0px;
      }

      .cls-3 {
        fill: #333132;
      }

      .cls-4 {
        fill: #fffef2;
      }
    </style>
    <clipPath id="clippath">
      <rect class="cls-2" width="144" height="144"/>
    </clipPath>
  </defs>
  <g class="cls-1">
    <rect class="cls-3" y="0" width="144" height="144" rx="31.82" ry="31.82"/>
  </g>
  <g>
    <path class="cls-4" d="m47.08,88.68c-2.92,2.67-6.66,4.01-11.21,4.01-5.63,0-10.06-1.81-13.28-5.42-3.22-3.63-4.84-8.61-4.84-14.93,0-6.84,1.83-12.11,5.5-15.81,3.19-3.22,7.24-4.84,12.17-4.84,6.59,0,11.41,2.16,14.45,6.48,1.68,2.43,2.59,4.86,2.71,7.31h-8.18c-.53-1.88-1.21-3.29-2.05-4.25-1.49-1.7-3.69-2.55-6.62-2.55s-5.32,1.2-7.04,3.6-2.58,5.8-2.58,10.19.91,7.68,2.72,9.87,4.12,3.28,6.92,3.28,5.06-.94,6.56-2.82c.83-1.01,1.52-2.52,2.07-4.54h8.1c-.71,4.27-2.52,7.74-5.42,10.41Z"/>
    <path class="cls-4" d="m73.45,85.95c1.93,0,3.5-.21,4.7-.64,2.28-.81,3.43-2.33,3.43-4.54,0-1.29-.57-2.29-1.7-3-1.13-.69-2.91-1.3-5.34-1.83l-4.14-.93c-4.07-.92-6.89-1.92-8.45-3-2.64-1.81-3.96-4.63-3.96-8.48,0-3.51,1.28-6.42,3.83-8.74s6.3-3.48,11.24-3.48c4.13,0,7.65,1.09,10.56,3.28,2.91,2.19,4.44,5.36,4.58,9.52h-7.86c-.14-2.36-1.17-4.03-3.08-5.02-1.28-.66-2.86-.98-4.76-.98-2.11,0-3.79.43-5.05,1.28s-1.89,2.04-1.89,3.56c0,1.4.62,2.44,1.86,3.14.8.46,2.5,1,5.1,1.62l6.75,1.62c2.96.71,5.19,1.66,6.7,2.84,2.34,1.84,3.51,4.51,3.51,8s-1.37,6.55-4.1,8.91-6.6,3.55-11.6,3.55-9.11-1.16-12.04-3.49-4.38-5.53-4.38-9.6h7.81c.25,1.79.74,3.13,1.46,4.01,1.33,1.61,3.6,2.42,6.83,2.42Z"/>
    <path class="cls-4" d="m110.23,85.95c1.93,0,3.5-.21,4.7-.64,2.28-.81,3.43-2.33,3.43-4.54,0-1.29-.57-2.29-1.7-3-1.13-.69-2.91-1.3-5.34-1.83l-4.14-.93c-4.07-.92-6.89-1.92-8.45-3-2.64-1.81-3.96-4.63-3.96-8.48,0-3.51,1.28-6.42,3.83-8.74s6.3-3.48,11.24-3.48c4.13,0,7.65,1.09,10.56,3.28,2.91,2.19,4.44,5.36,4.58,9.52h-7.86c-.14-2.36-1.17-4.03-3.08-5.02-1.28-.66-2.86-.98-4.76-.98-2.11,0-3.79.43-5.05,1.28s-1.89,2.04-1.89,3.56c0,1.4.62,2.44,1.86,3.14.8.46,2.5,1,5.1,1.62l6.75,1.62c2.96.71,5.19,1.66,6.7,2.84,2.34,1.84,3.51,4.51,3.51,8s-1.37,6.55-4.1,8.91-6.6,3.55-11.6,3.55-9.11-1.16-12.04-3.49-4.38-5.53-4.38-9.6h7.81c.25,1.79.74,3.13,1.46,4.01,1.33,1.61,3.6,2.42,6.83,2.42Z"/>
  </g>
</svg>